<?xml version="1.0" encoding="iso-8859-1"?>
<!-- Generator: Adobe Illustrator 18.0.0, SVG Export Plug-In . SVG Version: 6.00 Build 0)  -->
<!DOCTYPE svg PUBLIC "-//W3C//DTD SVG 1.1//EN" "http://www.w3.org/Graphics/SVG/1.1/DTD/svg11.dtd">
<svg version="1.1" id="Capa_1" xmlns="http://www.w3.org/2000/svg" xmlns:xlink="http://www.w3.org/1999/xlink" x="0px" y="0px"
	 viewBox="0 0 81.165 81.165" style="enable-background:new 0 0 81.165 81.165;" xml:space="preserve">
<g>
	<path d="M71.127,21.85c-0.13-0.51-0.29-0.994-0.479-1.43c-0.095-0.217-0.232-0.357-0.383-0.461
		c-2.437-4.109-7.487-5.66-12.906-6.358c0.222-3.66,0.94-8.571-1.28-11.558c-0.555-0.748-1.671-1.419-2.625-1.407
		C49.759,0.683,46.204,0.022,42.5,0.068c-4.862,0.061-11-0.79-15.191,2.178c-3.185,2.253-3.129,7.48-2.905,11.285
		c-3.373,0.392-6.673,0.935-9.893,1.587c-0.006-0.017-0.004-0.032-0.01-0.048c-0.155-0.475-0.71-0.619-1.081-0.285
		c-0.213,0.193-0.431,0.432-0.648,0.668c-0.058,0.013-0.12,0.021-0.178,0.033c-0.437,0.1-0.615,0.501-0.588,0.886
		c-1.897,2.476-3.452,6.172-2.025,8.833c0.819,1.529,2.712,2.339,5.068,2.733c-2.673,9.968-0.344,43.797,0.474,46.032
		c0.199,0.543,0.59,0.846,1.027,0.985c2.301,5.327,18.546,5.472,21.18,5.778c8.908,1.043,15.676,0.111,24.225-1.936
		c0.835-0.197,1.466-0.536,2.019-0.925c0.143-0.159,0.283-0.322,0.429-0.477c0.555-0.592,1.139-1.188,1.751-1.757
		c1.553-6.357,0.957-13.709,1.441-20.113c0.358-4.719,0.078-9.585,0.054-14.313c-0.017-3.244-1.418-8.713-0.708-12.137
		c2.756,0.244,4.019-1.356,4.383-3.393c0.267-0.174,0.449-0.464,0.412-0.903C71.643,23.703,71.427,22.734,71.127,21.85z
		 M28.594,9.643c0.282-7.248,6.706-6.452,12.03-6.462c3.653-0.005,7.187,0.798,10.798,0.843c3.224,0.041,2.613,6.248,2.445,9.223
		c-0.749-0.07-1.486-0.153-2.244-0.211c0.211-2.216,0.342-4.432-0.852-6.429c-1.741-2.92-6.542-1.45-9.195-1.357
		c-3.421,0.12-6.829-1.587-9.93,0.705c-1.808,1.333-2.731,4.534-3.191,7.163c-0.139,0.01-0.275,0.029-0.416,0.042
		C28.351,12.069,28.543,10.978,28.594,9.643z M47.556,12.795c-5.309-0.258-10.742-0.22-16.143,0.122
		c0.342-0.822,0.675-1.646,0.988-2.524c1.497-4.203,5.292-1.197,7.978-1.102c2.123,0.074,4.188,0.088,6.305-0.009
		C47.62,9.241,47.663,11.109,47.556,12.795z M61.847,69.789c-0.967,0-1.776,0.251-2.69,0.537c-1.089,0.341-1.089,1.864,0,2.203
		c0.572,0.178,1.114,0.319,1.667,0.418c-0.19,0.145-0.377,0.312-0.569,0.449c-2.16-0.353-4.454-0.054-6.624,0.036
		c-0.833,0.032-0.833,1.26,0,1.292c1.325,0.054,2.7,0.19,4.06,0.219c-2.017,0.986-4.18,1.585-6.569,1.931
		c-0.816-0.683-1.854-1.21-2.669-1.791c-0.944-0.674-2.203,0.433-1.898,1.459c0.07,0.237,0.165,0.468,0.267,0.697
		c-0.882,0.029-1.782,0.049-2.73,0.045c-1.69-0.009-25.791-1.197-25.304-3.935c0.098-0.554-0.137-0.991-0.489-1.262
		c-2.454-8.897-0.366-20.186-0.346-29.36c0.013-4.682-0.557-9.782-0.394-14.525c5.172,0.289,11.423-0.682,14.183-0.644
		c10.49,0.141,20.959,0.361,31.39,1.218c-1.655,5.789-0.221,13.756-0.199,19.595c0.008,2.211,0.081,4.424,0.159,6.632
		c-1.383,0.491-1.335,2.795,0.118,3.188c0.1,2.197,0.207,4.396,0.332,6.596c-0.474,0.071-0.944,0.168-1.429,0.183
		c-2.19,0.059-2.157,3.543,0,3.38c0.553-0.041,1.083-0.146,1.613-0.272c0.033,0.603,0.068,1.208,0.102,1.813
		C63.199,69.723,62.522,69.789,61.847,69.789z M54.476,23.488c-7.384-1.43-15.272-0.52-22.735-0.421
		c-2.066,0.03-18.098,1.066-18.14-0.541c-0.029-1.171,0.292-2.239,0.6-3.288c1.965-1.951,7.33-1.897,9.216-1.93
		c2.404-0.046,5.302,0.123,7.437-1.104c3.126-0.039,6.255-0.056,9.384-0.048c2.105,0.007,4.609-0.102,7.253-0.138
		c0.582,1.573,3,1.567,3.727,0.026c3.168,0.094,6.375,0.419,9.241,1.28c-1.077,0.033-1.946,0.024-2.916,0.537
		c-0.42,0.225-0.42,0.895,0,1.119c0.884,0.468,1.619,0.497,2.607,0.528c1.238,0.039,2.242,0.117,3.348-0.528
		c0.116-0.068,0.193-0.171,0.244-0.282c0.859,0.461,1.659,1,2.394,1.62c-1.219,0.071-2.449,0.356-3.164,0.564
		c-0.696,0.204-0.727,1.249,0,1.438c1.01,0.263,1.909,0.272,2.946,0.263c0.352-0.004,0.708,0.053,1.064,0.116
		C64.114,25.553,58.65,24.299,54.476,23.488z"/>
	<path d="M27.269,29.369c-0.125-0.669-1.218-0.667-1.342,0c-1.275,6.839-1.625,13.914-1.718,20.856
		c-0.073,5.222-1.876,14.161,1.489,18.549c0.625,0.817,1.868,0.57,1.944-0.525c0.416-5.968,0.369-12.04,0.286-18.024
		C27.832,43.207,28.552,36.321,27.269,29.369z"/>
	<path d="M38.864,51.481c-0.019-5.946,0.126-12.166-0.996-18.017c-0.23-1.189-2.168-1.189-2.397,0
		c-0.976,5.085-0.808,10.344-0.988,15.507c-0.203,5.788-0.938,12.52,0.75,18.085c0.431,1.421,2.443,1.421,2.874,0
		C39.607,62.102,38.88,56.619,38.864,51.481z"/>
	<path d="M49.393,51.285c-0.054-5.4-1.795-13.136-0.151-18.3c0.321-1.009-1.271-1.705-1.727-0.728
		c-1.914,4.109-1.212,9.535-1.255,13.938c-0.072,7.184-1.292,15.365,0.439,22.355c0.269,1.095,1.934,1.095,2.203,0
		C50.264,63.043,49.448,56.937,49.393,51.285z"/>
	<path d="M59.002,53.017c0.161-6.608-0.292-13.164-0.75-19.753c-0.129-1.855-2.754-1.855-2.882,0
		c-0.408,5.864-0.681,11.685-0.824,17.558c-0.126,5.242-1.758,11.318,0.298,16.234c0.426,1.02,2.133,1.693,2.725,0.357
		C59.538,62.951,58.882,57.84,59.002,53.017z"/>
</g>
<g>
</g>
<g>
</g>
<g>
</g>
<g>
</g>
<g>
</g>
<g>
</g>
<g>
</g>
<g>
</g>
<g>
</g>
<g>
</g>
<g>
</g>
<g>
</g>
<g>
</g>
<g>
</g>
<g>
</g>
</svg>
